G04*
G04 #@! TF.GenerationSoftware,Altium Limited,Altium Designer,21.2.2 (38)*
G04*
G04 Layer_Color=16711935*
%FSLAX24Y24*%
%MOIN*%
G70*
G04*
G04 #@! TF.SameCoordinates,13F91C56-90A4-4746-9D45-15C4089C9FE9*
G04*
G04*
G04 #@! TF.FilePolarity,Positive*
G04*
G01*
G75*
%ADD14C,0.0039*%
%ADD16C,0.0059*%
D14*
X6980Y-391D02*
G03*
X6980Y-391I-98J0D01*
G01*
X12285Y22378D02*
G03*
X12285Y22378I-197J0D01*
G01*
X7143Y-646D02*
Y1165D01*
X6120Y-646D02*
Y1165D01*
Y-646D02*
X7143D01*
X6120Y1165D02*
X7143D01*
X5409Y12894D02*
X6591D01*
X5409Y13406D02*
X6591D01*
X5409Y12894D02*
Y13406D01*
X6591Y12894D02*
Y13406D01*
X8956Y5909D02*
Y7091D01*
X8444Y5909D02*
Y7091D01*
Y5909D02*
X8956D01*
X8444Y7091D02*
X8956D01*
X9259Y5156D02*
X10441D01*
X9259Y4644D02*
X10441D01*
Y5156D01*
X9259Y4644D02*
Y5156D01*
X609Y10294D02*
Y10806D01*
X1791Y10294D02*
Y10806D01*
X609D02*
X1791D01*
X609Y10294D02*
X1791D01*
X12495Y20403D02*
X13497Y21405D01*
X11103Y21795D02*
X12105Y22797D01*
X11103Y21795D02*
X12495Y20403D01*
X12105Y22797D02*
X13497Y21405D01*
D16*
X11841Y9167D02*
G03*
X11841Y9167I-141J0D01*
G01*
X7004Y18369D02*
G03*
X7004Y18369I-197J0D01*
G01*
X8000Y9476D02*
X12000D01*
X8000Y8059D02*
Y9476D01*
Y8059D02*
X12000D01*
Y9476D01*
X6145Y18369D02*
X8929Y15585D01*
Y21153D02*
X11712Y18369D01*
X6145D02*
X8929Y21153D01*
Y15585D02*
X11712Y18369D01*
M02*
