G04*
G04 #@! TF.GenerationSoftware,Altium Limited,Altium Designer,21.2.2 (38)*
G04*
G04 Layer_Color=2752767*
%FSLAX24Y24*%
%MOIN*%
G70*
G04*
G04 #@! TF.SameCoordinates,13F91C56-90A4-4746-9D45-15C4089C9FE9*
G04*
G04*
G04 #@! TF.FilePolarity,Positive*
G04*
G01*
G75*
%ADD113C,0.0020*%
%ADD114C,0.0027*%
D113*
X1520Y2061D02*
Y2221D01*
X1680D01*
Y2061D01*
X1520D01*
Y879D02*
Y1039D01*
X1680D01*
Y879D01*
X1520D01*
X13396Y3335D02*
X13316Y3495D01*
X13476D01*
X13396Y3335D01*
Y4910D02*
X13316Y5070D01*
X13476D01*
X13396Y4910D01*
Y9307D02*
X13316Y9467D01*
X13476D01*
X13396Y9307D01*
Y7733D02*
X13316Y7893D01*
X13476D01*
X13396Y7733D01*
X1450Y23167D02*
X1490Y23207D01*
X1530D01*
X1490Y23247D01*
X1530Y23287D01*
X1490D01*
X1450Y23327D01*
X1410Y23287D01*
X1370D01*
X1410Y23247D01*
X1370Y23207D01*
X1410D01*
X1450Y23167D01*
Y24073D02*
X1490Y24113D01*
X1530D01*
X1490Y24153D01*
X1530Y24193D01*
X1490D01*
X1450Y24233D01*
X1410Y24193D01*
X1370D01*
X1410Y24153D01*
X1370Y24113D01*
X1410D01*
X1450Y24073D01*
X14600Y24123D02*
X14640Y24163D01*
X14680D01*
X14640Y24203D01*
X14680Y24243D01*
X14640D01*
X14600Y24283D01*
X14560Y24243D01*
X14520D01*
X14560Y24203D01*
X14520Y24163D01*
X14560D01*
X14600Y24123D01*
Y23217D02*
X14640Y23257D01*
X14680D01*
X14640Y23297D01*
X14680Y23337D01*
X14640D01*
X14600Y23377D01*
X14560Y23337D01*
X14520D01*
X14560Y23297D01*
X14520Y23257D01*
X14560D01*
X14600Y23217D01*
X9080Y24520D02*
X9120Y24600D01*
X9080Y24680D01*
X9160Y24640D01*
X9240Y24680D01*
X9200Y24600D01*
X9240Y24520D01*
X9160Y24560D01*
X9080Y24520D01*
X7020Y24450D02*
X7060Y24530D01*
X7020Y24610D01*
X7100Y24570D01*
X7180Y24610D01*
X7140Y24530D01*
X7180Y24450D01*
X7100Y24490D01*
X7020Y24450D01*
X2882Y22031D02*
X2922Y22111D01*
X2882Y22191D01*
X2962Y22151D01*
X3042Y22191D01*
X3002Y22111D01*
X3042Y22031D01*
X2962Y22071D01*
X2882Y22031D01*
X5715Y21975D02*
X5755Y22055D01*
X5715Y22135D01*
X5795Y22095D01*
X5875Y22135D01*
X5835Y22055D01*
X5875Y21975D01*
X5795Y22015D01*
X5715Y21975D01*
X6661Y16604D02*
X6701Y16684D01*
X6661Y16764D01*
X6741Y16724D01*
X6821Y16764D01*
X6781Y16684D01*
X6821Y16604D01*
X6741Y16644D01*
X6661Y16604D01*
X8539Y15541D02*
X8579Y15621D01*
X8539Y15701D01*
X8619Y15661D01*
X8699Y15701D01*
X8659Y15621D01*
X8699Y15541D01*
X8619Y15581D01*
X8539Y15541D01*
X6940Y20300D02*
X6980Y20380D01*
X6940Y20460D01*
X7020Y20420D01*
X7100Y20460D01*
X7060Y20380D01*
X7100Y20300D01*
X7020Y20340D01*
X6940Y20300D01*
X4862Y2628D02*
X4902Y2708D01*
X4862Y2788D01*
X4942Y2748D01*
X5022Y2788D01*
X4982Y2708D01*
X5022Y2628D01*
X4942Y2668D01*
X4862Y2628D01*
X6734Y-1179D02*
X6774Y-1099D01*
X6734Y-1019D01*
X6814Y-1059D01*
X6894Y-1019D01*
X6854Y-1099D01*
X6894Y-1179D01*
X6814Y-1139D01*
X6734Y-1179D01*
X6375Y-1199D02*
X6415Y-1119D01*
X6375Y-1039D01*
X6455Y-1079D01*
X6535Y-1039D01*
X6495Y-1119D01*
X6535Y-1199D01*
X6455Y-1159D01*
X6375Y-1199D01*
X3979Y8571D02*
X4019Y8651D01*
X3979Y8731D01*
X4059Y8691D01*
X4139Y8731D01*
X4099Y8651D01*
X4139Y8571D01*
X4059Y8611D01*
X3979Y8571D01*
X3724Y8616D02*
X3764Y8696D01*
X3724Y8776D01*
X3804Y8736D01*
X3884Y8776D01*
X3844Y8696D01*
X3884Y8616D01*
X3804Y8656D01*
X3724Y8616D01*
X7619Y18962D02*
X7659Y19042D01*
X7619Y19122D01*
X7699Y19082D01*
X7779Y19122D01*
X7739Y19042D01*
X7779Y18962D01*
X7699Y19002D01*
X7619Y18962D01*
X7310Y18909D02*
X7350Y18989D01*
X7310Y19069D01*
X7390Y19029D01*
X7470Y19069D01*
X7430Y18989D01*
X7470Y18909D01*
X7390Y18949D01*
X7310Y18909D01*
X8800Y16771D02*
X8840Y16851D01*
X8800Y16931D01*
X8880Y16891D01*
X8960Y16931D01*
X8920Y16851D01*
X8960Y16771D01*
X8880Y16811D01*
X8800Y16771D01*
X12717Y18259D02*
X12757Y18339D01*
X12717Y18419D01*
X12797Y18379D01*
X12877Y18419D01*
X12837Y18339D01*
X12877Y18259D01*
X12797Y18299D01*
X12717Y18259D01*
X13320Y17120D02*
X13360Y17200D01*
X13320Y17280D01*
X13400Y17240D01*
X13480Y17280D01*
X13440Y17200D01*
X13480Y17120D01*
X13400Y17160D01*
X13320Y17120D01*
X13320Y13980D02*
X13360Y14060D01*
X13320Y14140D01*
X13400Y14100D01*
X13480Y14140D01*
X13440Y14060D01*
X13480Y13980D01*
X13400Y14020D01*
X13320Y13980D01*
X11027Y18449D02*
X11067Y18529D01*
X11027Y18609D01*
X11107Y18569D01*
X11187Y18609D01*
X11147Y18529D01*
X11187Y18449D01*
X11107Y18489D01*
X11027Y18449D01*
X10039Y17405D02*
X10079Y17485D01*
X10039Y17565D01*
X10119Y17525D01*
X10199Y17565D01*
X10159Y17485D01*
X10199Y17405D01*
X10119Y17445D01*
X10039Y17405D01*
X9832Y17188D02*
X9872Y17268D01*
X9832Y17348D01*
X9912Y17308D01*
X9992Y17348D01*
X9952Y17268D01*
X9992Y17188D01*
X9912Y17228D01*
X9832Y17188D01*
X10476Y17797D02*
X10516Y17877D01*
X10476Y17957D01*
X10556Y17917D01*
X10636Y17957D01*
X10596Y17877D01*
X10636Y17797D01*
X10556Y17837D01*
X10476Y17797D01*
X10690Y17990D02*
X10730Y18070D01*
X10690Y18150D01*
X10770Y18110D01*
X10850Y18150D01*
X10810Y18070D01*
X10850Y17990D01*
X10770Y18030D01*
X10690Y17990D01*
X12405Y14894D02*
X12445Y14974D01*
X12405Y15054D01*
X12485Y15014D01*
X12565Y15054D01*
X12525Y14974D01*
X12565Y14894D01*
X12485Y14934D01*
X12405Y14894D01*
X10177Y18754D02*
X10217Y18834D01*
X10177Y18914D01*
X10257Y18874D01*
X10337Y18914D01*
X10297Y18834D01*
X10337Y18754D01*
X10257Y18794D01*
X10177Y18754D01*
X9970Y18970D02*
X10010Y19050D01*
X9970Y19130D01*
X10050Y19090D01*
X10130Y19130D01*
X10090Y19050D01*
X10130Y18970D01*
X10050Y19010D01*
X9970Y18970D01*
X9658Y18976D02*
X9698Y19056D01*
X9658Y19136D01*
X9738Y19096D01*
X9818Y19136D01*
X9778Y19056D01*
X9818Y18976D01*
X9738Y19016D01*
X9658Y18976D01*
X9672Y19464D02*
X9712Y19544D01*
X9672Y19624D01*
X9752Y19584D01*
X9832Y19624D01*
X9792Y19544D01*
X9832Y19464D01*
X9752Y19504D01*
X9672Y19464D01*
X9259Y19931D02*
X9299Y20011D01*
X9259Y20091D01*
X9339Y20051D01*
X9419Y20091D01*
X9379Y20011D01*
X9419Y19931D01*
X9339Y19971D01*
X9259Y19931D01*
X9420Y18770D02*
X9460Y18850D01*
X9420Y18930D01*
X9500Y18890D01*
X9580Y18930D01*
X9540Y18850D01*
X9580Y18770D01*
X9500Y18810D01*
X9420Y18770D01*
X10837Y18615D02*
X10877Y18695D01*
X10837Y18775D01*
X10917Y18735D01*
X10997Y18775D01*
X10957Y18695D01*
X10997Y18615D01*
X10917Y18655D01*
X10837Y18615D01*
X9520Y19829D02*
X9560Y19909D01*
X9520Y19989D01*
X9600Y19949D01*
X9680Y19989D01*
X9640Y19909D01*
X9680Y19829D01*
X9600Y19869D01*
X9520Y19829D01*
X8784Y20469D02*
X8824Y20549D01*
X8784Y20629D01*
X8864Y20589D01*
X8944Y20629D01*
X8904Y20549D01*
X8944Y20469D01*
X8864Y20509D01*
X8784Y20469D01*
X9243Y20212D02*
X9283Y20292D01*
X9243Y20372D01*
X9323Y20332D01*
X9403Y20372D01*
X9363Y20292D01*
X9403Y20212D01*
X9323Y20252D01*
X9243Y20212D01*
X7324Y-994D02*
X7364Y-914D01*
X7324Y-834D01*
X7404Y-874D01*
X7484Y-834D01*
X7444Y-914D01*
X7484Y-994D01*
X7404Y-954D01*
X7324Y-994D01*
X7523Y-1124D02*
X7563Y-1044D01*
X7523Y-964D01*
X7603Y-1004D01*
X7683Y-964D01*
X7643Y-1044D01*
X7683Y-1124D01*
X7603Y-1084D01*
X7523Y-1124D01*
X6836Y5220D02*
X6876Y5300D01*
X6836Y5380D01*
X6916Y5340D01*
X6996Y5380D01*
X6956Y5300D01*
X6996Y5220D01*
X6916Y5260D01*
X6836Y5220D01*
Y4170D02*
X6876Y4250D01*
X6836Y4330D01*
X6916Y4290D01*
X6996Y4330D01*
X6956Y4250D01*
X6996Y4170D01*
X6916Y4210D01*
X6836Y4170D01*
X7035Y-1001D02*
X7075Y-921D01*
X7035Y-841D01*
X7115Y-881D01*
X7195Y-841D01*
X7155Y-921D01*
X7195Y-1001D01*
X7115Y-961D01*
X7035Y-1001D01*
X8503Y15304D02*
X8543Y15384D01*
X8503Y15464D01*
X8583Y15424D01*
X8663Y15464D01*
X8623Y15384D01*
X8663Y15304D01*
X8583Y15344D01*
X8503Y15304D01*
X8550Y13189D02*
X8590Y13269D01*
X8550Y13349D01*
X8630Y13309D01*
X8710Y13349D01*
X8670Y13269D01*
X8710Y13189D01*
X8630Y13229D01*
X8550Y13189D01*
X7741Y-898D02*
X7781Y-818D01*
X7741Y-738D01*
X7821Y-778D01*
X7901Y-738D01*
X7861Y-818D01*
X7901Y-898D01*
X7821Y-858D01*
X7741Y-898D01*
X7821Y-674D02*
X7861Y-594D01*
X7821Y-514D01*
X7901Y-554D01*
X7981Y-514D01*
X7941Y-594D01*
X7981Y-674D01*
X7901Y-634D01*
X7821Y-674D01*
X5492Y-1117D02*
X5532Y-1037D01*
X5492Y-957D01*
X5572Y-997D01*
X5652Y-957D01*
X5612Y-1037D01*
X5652Y-1117D01*
X5572Y-1077D01*
X5492Y-1117D01*
X5091Y-1116D02*
X5131Y-1036D01*
X5091Y-956D01*
X5171Y-996D01*
X5251Y-956D01*
X5211Y-1036D01*
X5251Y-1116D01*
X5171Y-1076D01*
X5091Y-1116D01*
X4300Y-1115D02*
X4340Y-1035D01*
X4300Y-955D01*
X4380Y-995D01*
X4460Y-955D01*
X4420Y-1035D01*
X4460Y-1115D01*
X4380Y-1075D01*
X4300Y-1115D01*
X4704D02*
X4744Y-1035D01*
X4704Y-955D01*
X4784Y-995D01*
X4864Y-955D01*
X4824Y-1035D01*
X4864Y-1115D01*
X4784Y-1075D01*
X4704Y-1115D01*
X5882Y-1112D02*
X5922Y-1032D01*
X5882Y-952D01*
X5962Y-992D01*
X6042Y-952D01*
X6002Y-1032D01*
X6042Y-1112D01*
X5962Y-1072D01*
X5882Y-1112D01*
X4896Y-969D02*
X4936Y-889D01*
X4896Y-809D01*
X4976Y-849D01*
X5056Y-809D01*
X5016Y-889D01*
X5056Y-969D01*
X4976Y-929D01*
X4896Y-969D01*
X620Y7820D02*
X660Y7900D01*
X620Y7980D01*
X700Y7940D01*
X780Y7980D01*
X740Y7900D01*
X780Y7820D01*
X700Y7860D01*
X620Y7820D01*
X878Y12298D02*
X918Y12378D01*
X878Y12458D01*
X958Y12418D01*
X1038Y12458D01*
X998Y12378D01*
X1038Y12298D01*
X958Y12338D01*
X878Y12298D01*
X1127Y11437D02*
X1167Y11517D01*
X1127Y11597D01*
X1207Y11557D01*
X1287Y11597D01*
X1247Y11517D01*
X1287Y11437D01*
X1207Y11477D01*
X1127Y11437D01*
X1420Y8470D02*
X1460Y8550D01*
X1420Y8630D01*
X1500Y8590D01*
X1580Y8630D01*
X1540Y8550D01*
X1580Y8470D01*
X1500Y8510D01*
X1420Y8470D01*
X1479Y3504D02*
X1519Y3584D01*
X1479Y3664D01*
X1559Y3624D01*
X1639Y3664D01*
X1599Y3584D01*
X1639Y3504D01*
X1559Y3544D01*
X1479Y3504D01*
X1741Y6662D02*
X1781Y6742D01*
X1741Y6822D01*
X1821Y6782D01*
X1901Y6822D01*
X1861Y6742D01*
X1901Y6662D01*
X1821Y6702D01*
X1741Y6662D01*
X1997Y8021D02*
X2037Y8101D01*
X1997Y8181D01*
X2077Y8141D01*
X2157Y8181D01*
X2117Y8101D01*
X2157Y8021D01*
X2077Y8061D01*
X1997Y8021D01*
X2120Y3420D02*
X2160Y3500D01*
X2120Y3580D01*
X2200Y3540D01*
X2280Y3580D01*
X2240Y3500D01*
X2280Y3420D01*
X2200Y3460D01*
X2120Y3420D01*
X2802Y-91D02*
X2842Y-11D01*
X2802Y69D01*
X2882Y29D01*
X2962Y69D01*
X2922Y-11D01*
X2962Y-91D01*
X2882Y-51D01*
X2802Y-91D01*
X2820Y9470D02*
X2860Y9550D01*
X2820Y9630D01*
X2900Y9590D01*
X2980Y9630D01*
X2940Y9550D01*
X2980Y9470D01*
X2900Y9510D01*
X2820Y9470D01*
X3553Y7659D02*
X3593Y7739D01*
X3553Y7819D01*
X3633Y7779D01*
X3713Y7819D01*
X3673Y7739D01*
X3713Y7659D01*
X3633Y7699D01*
X3553Y7659D01*
X3770Y11820D02*
X3810Y11900D01*
X3770Y11980D01*
X3850Y11940D01*
X3930Y11980D01*
X3890Y11900D01*
X3930Y11820D01*
X3850Y11860D01*
X3770Y11820D01*
X3978Y9833D02*
X4018Y9913D01*
X3978Y9993D01*
X4058Y9953D01*
X4138Y9993D01*
X4098Y9913D01*
X4138Y9833D01*
X4058Y9873D01*
X3978Y9833D01*
X3980Y9393D02*
X4020Y9473D01*
X3980Y9553D01*
X4060Y9513D01*
X4140Y9553D01*
X4100Y9473D01*
X4140Y9393D01*
X4060Y9433D01*
X3980Y9393D01*
X4000Y10105D02*
X4040Y10185D01*
X4000Y10265D01*
X4080Y10225D01*
X4160Y10265D01*
X4120Y10185D01*
X4160Y10105D01*
X4080Y10145D01*
X4000Y10105D01*
X4010Y10616D02*
X4050Y10696D01*
X4010Y10776D01*
X4090Y10736D01*
X4170Y10776D01*
X4130Y10696D01*
X4170Y10616D01*
X4090Y10656D01*
X4010Y10616D01*
X4220Y2870D02*
X4260Y2950D01*
X4220Y3030D01*
X4300Y2990D01*
X4380Y3030D01*
X4340Y2950D01*
X4380Y2870D01*
X4300Y2910D01*
X4220Y2870D01*
X4511Y-964D02*
X4551Y-884D01*
X4511Y-804D01*
X4591Y-844D01*
X4671Y-804D01*
X4631Y-884D01*
X4671Y-964D01*
X4591Y-924D01*
X4511Y-964D01*
X4595Y6358D02*
X4635Y6438D01*
X4595Y6518D01*
X4675Y6478D01*
X4755Y6518D01*
X4715Y6438D01*
X4755Y6358D01*
X4675Y6398D01*
X4595Y6358D01*
X4820Y4659D02*
X4860Y4739D01*
X4820Y4819D01*
X4900Y4779D01*
X4980Y4819D01*
X4940Y4739D01*
X4980Y4659D01*
X4900Y4699D01*
X4820Y4659D01*
X5300Y-969D02*
X5340Y-889D01*
X5300Y-809D01*
X5380Y-849D01*
X5460Y-809D01*
X5420Y-889D01*
X5460Y-969D01*
X5380Y-929D01*
X5300Y-969D01*
X5681Y-953D02*
X5721Y-873D01*
X5681Y-793D01*
X5761Y-833D01*
X5841Y-793D01*
X5801Y-873D01*
X5841Y-953D01*
X5761Y-913D01*
X5681Y-953D01*
X6069Y-968D02*
X6109Y-888D01*
X6069Y-808D01*
X6149Y-848D01*
X6229Y-808D01*
X6189Y-888D01*
X6229Y-968D01*
X6149Y-928D01*
X6069Y-968D01*
X8705Y2834D02*
X8745Y2914D01*
X8705Y2994D01*
X8785Y2954D01*
X8865Y2994D01*
X8825Y2914D01*
X8865Y2834D01*
X8785Y2874D01*
X8705Y2834D01*
X12023Y2668D02*
X12063Y2748D01*
X12023Y2828D01*
X12103Y2788D01*
X12183Y2828D01*
X12143Y2748D01*
X12183Y2668D01*
X12103Y2708D01*
X12023Y2668D01*
X12270Y2070D02*
X12310Y2150D01*
X12270Y2230D01*
X12350Y2190D01*
X12430Y2230D01*
X12390Y2150D01*
X12430Y2070D01*
X12350Y2110D01*
X12270Y2070D01*
X13600Y4127D02*
X13640Y4207D01*
X13600Y4287D01*
X13680Y4247D01*
X13760Y4287D01*
X13720Y4207D01*
X13760Y4127D01*
X13680Y4167D01*
X13600Y4127D01*
X13860Y3593D02*
X13900Y3673D01*
X13860Y3753D01*
X13940Y3713D01*
X14020Y3753D01*
X13980Y3673D01*
X14020Y3593D01*
X13940Y3633D01*
X13860Y3593D01*
X6870Y11920D02*
X6910Y12000D01*
X6870Y12080D01*
X6950Y12040D01*
X7030Y12080D01*
X6990Y12000D01*
X7030Y11920D01*
X6950Y11960D01*
X6870Y11920D01*
X8688Y4177D02*
X8728Y4257D01*
X8688Y4337D01*
X8768Y4297D01*
X8848Y4337D01*
X8808Y4257D01*
X8848Y4177D01*
X8768Y4217D01*
X8688Y4177D01*
X9370Y10770D02*
X9410Y10850D01*
X9370Y10930D01*
X9450Y10890D01*
X9530Y10930D01*
X9490Y10850D01*
X9530Y10770D01*
X9450Y10810D01*
X9370Y10770D01*
X9824Y12419D02*
X9864Y12499D01*
X9824Y12579D01*
X9904Y12539D01*
X9984Y12579D01*
X9944Y12499D01*
X9984Y12419D01*
X9904Y12459D01*
X9824Y12419D01*
X10220Y10768D02*
X10260Y10848D01*
X10220Y10928D01*
X10300Y10888D01*
X10380Y10928D01*
X10340Y10848D01*
X10380Y10768D01*
X10300Y10808D01*
X10220Y10768D01*
X13770Y7470D02*
X13810Y7550D01*
X13770Y7630D01*
X13850Y7590D01*
X13930Y7630D01*
X13890Y7550D01*
X13930Y7470D01*
X13850Y7510D01*
X13770Y7470D01*
Y8795D02*
X13810Y8875D01*
X13770Y8955D01*
X13850Y8915D01*
X13930Y8955D01*
X13890Y8875D01*
X13930Y8795D01*
X13850Y8835D01*
X13770Y8795D01*
X14120Y11520D02*
X14160Y11600D01*
X14120Y11680D01*
X14200Y11640D01*
X14280Y11680D01*
X14240Y11600D01*
X14280Y11520D01*
X14200Y11560D01*
X14120Y11520D01*
X14179Y4181D02*
X14219Y4261D01*
X14179Y4341D01*
X14259Y4301D01*
X14339Y4341D01*
X14299Y4261D01*
X14339Y4181D01*
X14259Y4221D01*
X14179Y4181D01*
X14208Y8008D02*
X14248Y8088D01*
X14208Y8168D01*
X14288Y8128D01*
X14368Y8168D01*
X14328Y8088D01*
X14368Y8008D01*
X14288Y8048D01*
X14208Y8008D01*
X6870Y13370D02*
X6910Y13450D01*
X6870Y13530D01*
X6950Y13490D01*
X7030Y13530D01*
X6990Y13450D01*
X7030Y13370D01*
X6950Y13410D01*
X6870Y13370D01*
X9620Y13770D02*
X9660Y13850D01*
X9620Y13930D01*
X9700Y13890D01*
X9780Y13930D01*
X9740Y13850D01*
X9780Y13770D01*
X9700Y13810D01*
X9620Y13770D01*
X6180Y15563D02*
X6220Y15643D01*
X6180Y15723D01*
X6260Y15683D01*
X6340Y15723D01*
X6300Y15643D01*
X6340Y15563D01*
X6260Y15603D01*
X6180Y15563D01*
X9028Y17915D02*
X9068Y17995D01*
X9028Y18075D01*
X9108Y18035D01*
X9188Y18075D01*
X9148Y17995D01*
X9188Y17915D01*
X9108Y17955D01*
X9028Y17915D01*
X7823Y18635D02*
X7863Y18715D01*
X7823Y18795D01*
X7903Y18755D01*
X7983Y18795D01*
X7943Y18715D01*
X7983Y18635D01*
X7903Y18675D01*
X7823Y18635D01*
X7605Y18676D02*
X7645Y18756D01*
X7605Y18836D01*
X7685Y18796D01*
X7765Y18836D01*
X7725Y18756D01*
X7765Y18676D01*
X7685Y18716D01*
X7605Y18676D01*
X3420Y21020D02*
X3460Y21100D01*
X3420Y21180D01*
X3500Y21140D01*
X3580Y21180D01*
X3540Y21100D01*
X3580Y21020D01*
X3500Y21060D01*
X3420Y21020D01*
X3431Y23969D02*
X3471Y24049D01*
X3431Y24129D01*
X3511Y24089D01*
X3591Y24129D01*
X3551Y24049D01*
X3591Y23969D01*
X3511Y24009D01*
X3431Y23969D01*
X6170Y21420D02*
X6210Y21500D01*
X6170Y21580D01*
X6250Y21540D01*
X6330Y21580D01*
X6290Y21500D01*
X6330Y21420D01*
X6250Y21460D01*
X6170Y21420D01*
X6670Y20570D02*
X6710Y20650D01*
X6670Y20730D01*
X6750Y20690D01*
X6830Y20730D01*
X6790Y20650D01*
X6830Y20570D01*
X6750Y20610D01*
X6670Y20570D01*
X7891Y22959D02*
X7931Y23039D01*
X7891Y23119D01*
X7971Y23079D01*
X8051Y23119D01*
X8011Y23039D01*
X8051Y22959D01*
X7971Y22999D01*
X7891Y22959D01*
X8018Y19792D02*
X8058Y19872D01*
X8018Y19952D01*
X8098Y19912D01*
X8178Y19952D01*
X8138Y19872D01*
X8178Y19792D01*
X8098Y19832D01*
X8018Y19792D01*
X8198Y19643D02*
X8238Y19723D01*
X8198Y19803D01*
X8278Y19763D01*
X8358Y19803D01*
X8318Y19723D01*
X8358Y19643D01*
X8278Y19683D01*
X8198Y19643D01*
X8378Y19801D02*
X8418Y19881D01*
X8378Y19961D01*
X8458Y19921D01*
X8538Y19961D01*
X8498Y19881D01*
X8538Y19801D01*
X8458Y19841D01*
X8378Y19801D01*
X8562Y19634D02*
X8602Y19714D01*
X8562Y19794D01*
X8642Y19754D01*
X8722Y19794D01*
X8682Y19714D01*
X8722Y19634D01*
X8642Y19674D01*
X8562Y19634D01*
X8740Y19790D02*
X8780Y19870D01*
X8740Y19950D01*
X8820Y19910D01*
X8900Y19950D01*
X8860Y19870D01*
X8900Y19790D01*
X8820Y19830D01*
X8740Y19790D01*
X9892Y14748D02*
X9932Y14828D01*
X9892Y14908D01*
X9972Y14868D01*
X10052Y14908D01*
X10012Y14828D01*
X10052Y14748D01*
X9972Y14788D01*
X9892Y14748D01*
X10270Y17600D02*
X10310Y17680D01*
X10270Y17760D01*
X10350Y17720D01*
X10430Y17760D01*
X10390Y17680D01*
X10430Y17600D01*
X10350Y17640D01*
X10270Y17600D01*
X10260Y13776D02*
X10300Y13856D01*
X10260Y13936D01*
X10340Y13896D01*
X10420Y13936D01*
X10380Y13856D01*
X10420Y13776D01*
X10340Y13816D01*
X10260Y13776D01*
X10440Y15757D02*
X10480Y15837D01*
X10440Y15917D01*
X10520Y15877D01*
X10600Y15917D01*
X10560Y15837D01*
X10600Y15757D01*
X10520Y15797D01*
X10440Y15757D01*
X10620Y16085D02*
X10660Y16165D01*
X10620Y16245D01*
X10700Y16205D01*
X10780Y16245D01*
X10740Y16165D01*
X10780Y16085D01*
X10700Y16125D01*
X10620Y16085D01*
X11240Y16016D02*
X11280Y16096D01*
X11240Y16176D01*
X11320Y16136D01*
X11400Y16176D01*
X11360Y16096D01*
X11400Y16016D01*
X11320Y16056D01*
X11240Y16016D01*
X11271Y18266D02*
X11311Y18346D01*
X11271Y18426D01*
X11351Y18386D01*
X11431Y18426D01*
X11391Y18346D01*
X11431Y18266D01*
X11351Y18306D01*
X11271Y18266D01*
X11423Y16137D02*
X11463Y16217D01*
X11423Y16297D01*
X11503Y16257D01*
X11583Y16297D01*
X11543Y16217D01*
X11583Y16137D01*
X11503Y16177D01*
X11423Y16137D01*
X11608Y15964D02*
X11648Y16044D01*
X11608Y16124D01*
X11688Y16084D01*
X11768Y16124D01*
X11728Y16044D01*
X11768Y15964D01*
X11688Y16004D01*
X11608Y15964D01*
X11788Y16166D02*
X11828Y16246D01*
X11788Y16326D01*
X11868Y16286D01*
X11948Y16326D01*
X11908Y16246D01*
X11948Y16166D01*
X11868Y16206D01*
X11788Y16166D01*
X11941Y19149D02*
X11981Y19229D01*
X11941Y19309D01*
X12021Y19269D01*
X12101Y19309D01*
X12061Y19229D01*
X12101Y19149D01*
X12021Y19189D01*
X11941Y19149D01*
X12001Y15962D02*
X12041Y16042D01*
X12001Y16122D01*
X12081Y16082D01*
X12161Y16122D01*
X12121Y16042D01*
X12161Y15962D01*
X12081Y16002D01*
X12001Y15962D01*
X12191Y16157D02*
X12231Y16237D01*
X12191Y16317D01*
X12271Y16277D01*
X12351Y16317D01*
X12311Y16237D01*
X12351Y16157D01*
X12271Y16197D01*
X12191Y16157D01*
X12267Y17489D02*
X12307Y17569D01*
X12267Y17649D01*
X12347Y17609D01*
X12427Y17649D01*
X12387Y17569D01*
X12427Y17489D01*
X12347Y17529D01*
X12267Y17489D01*
X12371Y15318D02*
X12411Y15398D01*
X12371Y15478D01*
X12451Y15438D01*
X12531Y15478D01*
X12491Y15398D01*
X12531Y15318D01*
X12451Y15358D01*
X12371Y15318D01*
X12570Y16620D02*
X12610Y16700D01*
X12570Y16780D01*
X12650Y16740D01*
X12730Y16780D01*
X12690Y16700D01*
X12730Y16620D01*
X12650Y16660D01*
X12570Y16620D01*
X14370Y19320D02*
X14410Y19400D01*
X14370Y19480D01*
X14450Y19440D01*
X14530Y19480D01*
X14490Y19400D01*
X14530Y19320D01*
X14450Y19360D01*
X14370Y19320D01*
X14865Y17940D02*
X14905Y18020D01*
X14865Y18100D01*
X14945Y18060D01*
X15025Y18100D01*
X14985Y18020D01*
X15025Y17940D01*
X14945Y17980D01*
X14865Y17940D01*
X14868Y15837D02*
X14908Y15917D01*
X14868Y15997D01*
X14948Y15957D01*
X15028Y15997D01*
X14988Y15917D01*
X15028Y15837D01*
X14948Y15877D01*
X14868Y15837D01*
X14870Y13770D02*
X14910Y13850D01*
X14870Y13930D01*
X14950Y13890D01*
X15030Y13930D01*
X14990Y13850D01*
X15030Y13770D01*
X14950Y13810D01*
X14870Y13770D01*
X11120Y20120D02*
X11160Y20200D01*
X11120Y20280D01*
X11200Y20240D01*
X11280Y20280D01*
X11240Y20200D01*
X11280Y20120D01*
X11200Y20160D01*
X11120Y20120D01*
X11150Y19890D02*
X11190Y19970D01*
X11150Y20050D01*
X11230Y20010D01*
X11310Y20050D01*
X11270Y19970D01*
X11310Y19890D01*
X11230Y19930D01*
X11150Y19890D01*
X11596Y21494D02*
X11636Y21574D01*
X11596Y21654D01*
X11676Y21614D01*
X11756Y21654D01*
X11716Y21574D01*
X11756Y21494D01*
X11676Y21534D01*
X11596Y21494D01*
X11817Y21143D02*
X11857Y21223D01*
X11817Y21303D01*
X11897Y21263D01*
X11977Y21303D01*
X11937Y21223D01*
X11977Y21143D01*
X11897Y21183D01*
X11817Y21143D01*
X12020Y23170D02*
X12060Y23250D01*
X12020Y23330D01*
X12100Y23290D01*
X12180Y23330D01*
X12140Y23250D01*
X12180Y23170D01*
X12100Y23210D01*
X12020Y23170D01*
X12515Y21135D02*
X12556Y21215D01*
X12515Y21295D01*
X12595Y21255D01*
X12675Y21295D01*
X12636Y21215D01*
X12675Y21135D01*
X12595Y21175D01*
X12515Y21135D01*
X13994Y21758D02*
X14034Y21838D01*
X13994Y21918D01*
X14074Y21878D01*
X14154Y21918D01*
X14114Y21838D01*
X14154Y21758D01*
X14074Y21798D01*
X13994Y21758D01*
D114*
X12964Y2785D02*
G03*
X12964Y2785I-80J0D01*
G01*
Y5620D02*
G03*
X12964Y5620I-80J0D01*
G01*
X14330D02*
G03*
X14330Y5620I-80J0D01*
G01*
Y2785D02*
G03*
X14330Y2785I-80J0D01*
G01*
Y7183D02*
G03*
X14330Y7183I-80J0D01*
G01*
Y10017D02*
G03*
X14330Y10017I-80J0D01*
G01*
X12964D02*
G03*
X12964Y10017I-80J0D01*
G01*
Y7183D02*
G03*
X12964Y7183I-80J0D01*
G01*
M02*
