M48
;Layer_Color=9474304
;FILE_FORMAT=2:4
INCH,LZ
;TYPE=PLATED
T1F00S00C0.0118
T3F00S00C0.0315
T4F00S00C0.0354
;TYPE=NON_PLATED
T5F00S00C0.0236
%
T01
X002882Y-000011
X00438Y-001035
X004591Y-000884
X004784Y-001035
X004976Y-000889
X005171Y-001036
X00538Y-000889
X005572Y-001037
X004942Y002708
X0043Y00295
X008785Y002914
X012103Y002748
X01235Y00215
X007901Y-000594
X007821Y-000818
X007603Y-001044
X007404Y-000914
X007115Y-000921
X006814Y-001099
X006455Y-001119
X006149Y-000888
X005962Y-001032
X005761Y-000873
X006916Y00425
Y0053
X008768Y004257
X01368Y004207
X014259Y004261
X01394Y003673
X01385Y00755
X014288Y008088
X01385Y008875
X0142Y0116
X01495Y01385
X0134Y01406
X012485Y014974
X012451Y015398
X012081Y016042
X012271Y016237
X011868Y016246
X011688Y016044
X011503Y016217
X01132Y016096
X0107Y016165
X01052Y015837
X009972Y014828
X0097Y01385
X01034Y013856
X009904Y012499
X00863Y013269
X00695Y01345
Y012
X00945Y01085
X0103Y010848
X008583Y015384
X008619Y015621
X00888Y016851
X009108Y017995
X0095Y01885
X010257Y018834
X010917Y018695
X011107Y018529
X011351Y018346
X01077Y01807
X010556Y017877
X01035Y01768
X010119Y017485
X009912Y017268
X012347Y017569
X01265Y0167
X0134Y0172
X012797Y018339
X014945Y01802
X014948Y015917
X00626Y015643
X006741Y016684
X007685Y018756
X007903Y018715
X00385Y0119
X00409Y010696
X00408Y010185
X004058Y009913
X00406Y009473
X004059Y008651
X003804Y008696
X003633Y007739
X002077Y008101
X0015Y00855
X0007Y0079
X001821Y006742
X004675Y006438
X0049Y004739
X0022Y0035
X001559Y003584
X0029Y00955
X001207Y011517
X000958Y012378
X0035Y0211
X002962Y022111
X003511Y024049
X0071Y02453
X00916Y0246
X007971Y023039
X005795Y022055
X00625Y0215
X00675Y02065
X00702Y02038
X008098Y019872
X008278Y019723
X008458Y019881
X008642Y019714
X00882Y01987
X009339Y020011
X009323Y020292
X0096Y019909
X009752Y019544
X009738Y019056
X01005Y01905
X01123Y01997
X0112Y0202
X011897Y021223
X011676Y021574
X012595Y021215
X014074Y021838
X01445Y0194
X012021Y019229
X0121Y02325
X008864Y020549
X007699Y019042
X00739Y018989
T03
X0016Y000959
Y002141
T04
X00145Y023247
Y024153
X0146Y024203
Y023297
T05
X013396Y003415
Y00499
Y007813
Y009387
M30
